PathFileType	4	(X/Y/Z)	C:/Users/opensim2020/Desktop/walking_exp_matlab/subject06_walking12_straigt_02.trc																																																																																																																																														
DataRate	CameraRate	NumFrames	NumMarkers	Units	OrigDataRate	OrigDataStartFrame	OrigNumFrames																																																																																																																																										
100	100	4	48	mm	100	1601	215																																																																																																																																										
Frame#	Time	LFHD			RFHD			LBHD			RBHD			C7			T10			CLAV			STRN			RBAK			LSHO			LUPA			LELB			LFRM			LWRA			LWRB			LFIN			RSHO			RUPA			RELB			RFRM			RWRA			RWRB			RFIN			LASI			RASI			LPSI			RPSI			LTHI			LKNE			LTIB			LANK			LHEE			LTOE			RTHI			RKNE			RTIB			RANK			RHEE			RTOE			*39			*40			*41			*42			*43			*44			*45			*46			*47		
		X1	Y1	Z1	X2	Y2	Z2	X3	Y3	Z3	X4	Y4	Z4	X5	Y5	Z5	X6	Y6	Z6	X7	Y7	Z7	X8	Y8	Z8	X9	Y9	Z9	X10	Y10	Z10	X11	Y11	Z11	X12	Y12	Z12	X13	Y13	Z13	X14	Y14	Z14	X15	Y15	Z15	X16	Y16	Z16	X17	Y17	Z17	X18	Y18	Z18	X19	Y19	Z19	X20	Y20	Z20	X21	Y21	Z21	X22	Y22	Z22	X23	Y23	Z23	X24	Y24	Z24	X25	Y25	Z25	X26	Y26	Z26	X27	Y27	Z27	X28	Y28	Z28	X29	Y29	Z29	X30	Y30	Z30	X31	Y31	Z31	X32	Y32	Z32	X33	Y33	Z33	X34	Y34	Z34	X35	Y35	Z35	X36	Y36	Z36	X37	Y37	Z37	X38	Y38	Z38	X39	Y39	Z39	X40	Y40	Z40	X41	Y41	Z41	X42	Y42	Z42	X43	Y43	Z43	X44	Y44	Z44	X45	Y45	Z45	X46	Y46	Z46	X47	Y47	Z47	X48	Y48	Z48
																																																																																																																																																	
162	1.61	477.75684	1675.51563	-1511.22449	471.41434	1661.06555	-1379.55542	343.08612	1623.66089	-1518.59644	338.65063	1615.05896	-1389.76196	338.69019	1458.44543	-1462.4906	321.30005	1127.54407	-1450.27051	452.10989	1387.84924	-1460.07642	504.258	1214.27698	-1466.37195	275.30066	1283.17395	-1383.81738	391.97037	1414.19995	-1622.40759	413.41269	1211.4281	-1692.88354	427.03094	1099.46643	-1704.27405	487.04025	960.91986	-1722.18311	571.76147	866.09326	-1674.09802	517.17395	845.37823	-1714.62012	579.13776	780.85431	-1715.00928	402.51501	1416.3512	-1299.2981	366.65915	1214.63708	-1216.48376	375.2821	1093.05481	-1208.56519	386.79697	973.1933	-1191.38721	446.11795	832.2641	-1217.23071	388.78537	835.62341	-1182.16016	422.18317	758.14148	-1176.87732	499.55698	972.84686	-1562.27197	498.86087	975.4743	-1343.05066	339.79572	999.09003	-1531.24072	347.38489	995.04877	-1363.66809	431.70486	656.59052	-1612.97498	430.04425	493.28397	-1584.68396	375.0965	240.87521	-1565.03125	359.08029	73.16053	-1510.33801	318.85513	62.62891	-1463.8877	503.2341	40.68151	-1512.41785	515.06335	646.9101	-1277.05603	558.35529	528.28192	-1296.22876	417.20294	312.67261	-1298.02002	310.29114	160.37151	-1338.31262	266.95972	152.56987	-1386.98132	425.13315	61.06405	-1321.98767	375.70734	1714.29932	-1455.07861	NaN	NaN	NaN	NaN	NaN	NaN	NaN	NaN	NaN	NaN	NaN	NaN	NaN	NaN	NaN	NaN	NaN	NaN	NaN	NaN	NaN	NaN	NaN	NaN
163	1.62	488.35071	1675.55237	-1511.26257	482.06189	1660.89221	-1379.62549	353.78668	1623.71387	-1518.85889	349.21829	1614.84375	-1390.09961	349.26007	1458.52002	-1462.95081	330.97766	1127.79688	-1450.92676	462.44281	1387.73938	-1460.62439	514.08319	1213.97412	-1467.42273	285.40863	1283.4458	-1384.49255	402.69955	1414.5376	-1622.85413	427.16156	1212.33032	-1693.75671	442.99835	1100.59253	-1705.46338	507.49905	963.96509	-1722.94556	595.88934	872.81201	-1674.57629	541.8653	849.6535	-1714.6991	606.32764	787.79724	-1715.02112	413.26321	1415.9823	-1299.80811	375.40106	1214.31726	-1217.32739	382.45724	1092.80042	-1209.61121	391.80371	972.71948	-1192.51709	447.78928	830.35675	-1218.53674	390.68796	835.09558	-1183.20325	422.19211	756.76672	-1178.22217	507.92578	972.22693	-1563.47998	509.03363	975.68268	-1344.02258	348.9053	999.07599	-1531.12256	357.5361	995.30212	-1363.55286	437.98993	656.22681	-1613.31616	434.92294	493.00708	-1584.6731	377.35873	241.18013	-1564.88745	359.6409	73.61524	-1510.05591	319.41107	63.39949	-1463.44482	503.13248	40.21336	-1512.40186	528.99268	648.41644	-1278.10486	573.10803	530.25897	-1298.35791	439.35007	308.77008	-1299.3136	339.86661	151.33754	-1338.9928	297.27893	140.74254	-1387.62549	459.94916	58.53482	-1322.4115	386.27856	1714.22729	-1455.11609	NaN	NaN	NaN	NaN	NaN	NaN	NaN	NaN	NaN	NaN	NaN	NaN	NaN	NaN	NaN	NaN	NaN	NaN	NaN	NaN	NaN	NaN	NaN	NaN
164	1.63	499.05823	1675.52307	-1511.18396	492.64404	1660.62805	-1379.59314	364.43188	1623.73242	-1519.0625	359.80066	1614.66284	-1390.26172	359.68698	1458.57886	-1463.33167	340.79193	1127.97559	-1451.48218	472.81152	1387.5094	-1461.13123	523.87061	1213.63733	-1468.31006	295.55377	1283.61597	-1385.25964	413.32129	1414.77966	-1623.23767	440.6579	1213.24292	-1694.5791	458.81741	1101.80481	-1706.59961	527.97656	967.62567	-1723.93787	619.44739	879.8858	-1674.88416	566.18225	854.26294	-1714.5448	633.09991	795.15735	-1714.8457	423.87613	1415.55042	-1300.21606	384.41696	1214.08862	-1218.27124	389.95053	1092.53162	-1210.54639	396.86136	972.22638	-1193.57886	449.99289	828.61243	-1219.44238	392.78802	834.6095	-1184.24719	422.3017	755.4516	-1179.50378	513.93579	970.38733	-1564.41455	519.15515	975.83154	-1344.83521	357.93134	998.96338	-1531.15894	367.6373	995.49048	-1363.58264	444.39392	655.93982	-1613.25037	439.43381	492.66464	-1584.35571	379.4639	241.43092	-1564.69531	360.1871	74.0397	-1509.80518	320.55673	63.61879	-1463.16675	503.32047	40.15521	-1512.44507	542.37433	649.81091	-1279.1969	587.17957	532.20691	-1300.40918	461.32703	305.02057	-1300.58191	369.94189	142.37636	-1339.82715	327.56448	129.57088	-1388.49097	494.71262	56.351	-1322.96558	396.9241	1714.15576	-1455.09521	NaN	NaN	NaN	NaN	NaN	NaN	NaN	NaN	NaN	NaN	NaN	NaN	NaN	NaN	NaN	NaN	NaN	NaN	NaN	NaN	NaN	NaN	NaN	NaN
165	1.64	509.74133	1675.37341	-1511.04529	503.21164	1660.26392	-1379.52551	375.12659	1623.75537	-1519.22925	370.33093	1614.4342	-1390.43323	370.15506	1458.54553	-1463.724	350.61642	1127.97571	-1451.90955	483.07065	1387.21973	-1461.52637	533.71118	1213.27527	-1469.09375	305.54269	1283.76184	-1386.06616	424.01343	1415.03345	-1623.5708	453.9599	1214.13696	-1695.25354	474.39697	1103.06738	-1707.54944	547.70483	970.97058	-1724.04443	642.44952	887.23004	-1674.98096	590.17426	859.24573	-1714.33752	659.36755	802.93762	-1714.40393	434.39407	1415.07751	-1300.50012	393.21078	1213.69983	-1219.05591	397.41257	1092.17468	-1211.52368	402.08713	971.75311	-1194.66821	452.38983	827.13739	-1220.40796	395.16281	834.20239	-1185.27405	423.03461	754.38794	-1180.73547	525.25073	970.72992	-1565.18115	529.35272	975.92181	-1345.51282	367.17993	998.65161	-1531.1377	377.54031	995.59637	-1363.56274	450.77182	655.63464	-1613.03149	444.06259	492.35345	-1584.24329	381.59805	241.68137	-1564.52185	360.65704	74.43088	-1509.54651	320.32602	64.53623	-1462.83667	503.49493	40.09371	-1512.46594	555.54352	651.10925	-1280.06006	600.76251	533.82001	-1302.24475	483.24142	301.1069	-1301.85596	400.56873	133.69789	-1340.74719	359.38974	118.51144	-1389.245	529.51117	54.41673	-1323.44543	407.65073	1714.00354	-1455.03442	NaN	NaN	NaN	NaN	NaN	NaN	NaN	NaN	NaN	NaN	NaN	NaN	NaN	NaN	NaN	NaN	NaN	NaN	NaN	NaN	NaN	NaN	NaN	NaN
